<?xml version="1.0" encoding="UTF-8" standalone="no"?>
<!-- Generator: Adobe Illustrator 22.0.1, SVG Export Plug-In . SVG Version: 6.00 Build 0)  -->

<svg
   xmlns:dc="http://purl.org/dc/elements/1.1/"
   xmlns:cc="http://creativecommons.org/ns#"
   xmlns:rdf="http://www.w3.org/1999/02/22-rdf-syntax-ns#"
   xmlns:svg="http://www.w3.org/2000/svg"
   xmlns="http://www.w3.org/2000/svg"
   xmlns:xlink="http://www.w3.org/1999/xlink"
   xmlns:sodipodi="http://sodipodi.sourceforge.net/DTD/sodipodi-0.dtd"
   xmlns:inkscape="http://www.inkscape.org/namespaces/inkscape"
   version="1.1"
   id="Layer_1"
   x="0px"
   y="0px"
   viewBox="0 0 1040 1040"
   xml:space="preserve"
   inkscape:version="0.91 r13725"
   sodipodi:docname="logo_flutter_doc_1080px_clr.svg"
   width="1040"
   height="1040"
   inkscape:export-filename="D:\Coding\flutter_code\logo_flutter_doc_190.png"
   inkscape:export-xdpi="16.462887"
   inkscape:export-ydpi="16.462887"><metadata
     id="metadata81"><rdf:RDF><cc:Work
         rdf:about=""><dc:format>image/svg+xml</dc:format><dc:type
           rdf:resource="http://purl.org/dc/dcmitype/StillImage" /><dc:title></dc:title></cc:Work></rdf:RDF></metadata><defs
     id="defs79" /><sodipodi:namedview
     pagecolor="#ffffff"
     bordercolor="#666666"
     borderopacity="1"
     objecttolerance="10"
     gridtolerance="10"
     guidetolerance="10"
     inkscape:pageopacity="0"
     inkscape:pageshadow="2"
     inkscape:window-width="1536"
     inkscape:window-height="841"
     id="namedview77"
     showgrid="false"
     showborder="true"
     inkscape:showpageshadow="true"
     fit-margin-top="0"
     fit-margin-left="0"
     fit-margin-right="0"
     fit-margin-bottom="0"
     inkscape:zoom="1.2361274"
     inkscape:cx="928.52952"
     inkscape:cy="523.8641"
     inkscape:window-x="-8"
     inkscape:window-y="-8"
     inkscape:window-maximized="1"
     inkscape:current-layer="Layer_1" /><style
     type="text/css"
     id="style3">
	.st0{clip-path:url(#SVGID_2_);}
	.st1{fill:#39CEFD;}
	.st2{clip-path:url(#SVGID_4_);fill:#39CEFD;}
	.st3{clip-path:url(#SVGID_6_);fill:#03569B;}
	.st4{clip-path:url(#SVGID_8_);fill:url(#SVGID_9_);}
	.st5{clip-path:url(#SVGID_11_);}
	.st6{fill:#16B9FD;}
	.st7{fill:url(#SVGID_12_);}
</style><g
     id="g5"
     transform="translate(-120.6,-20.05)"><g
       id="g7"><g
         id="g9"><defs
           id="defs11"><path
             id="SVGID_1_"
             d="m 959.4,500 -279.6,279.7 279.6,279.7 0,0 -319.5,0 -119.9,-119.9 0,0 L 360.2,779.7 639.9,500 l 319.5,0 0,0 0,0 z M 639.9,20.7 120.6,540 l 159.8,159.8 679,-679.1 -319.5,0 z"
             inkscape:connector-curvature="0" /></defs><clipPath
           id="SVGID_2_"><use
             xlink:href="#SVGID_1_"
             style="overflow:visible"
             id="use15"
             x="0"
             y="0"
             width="100%"
             height="100%" /></clipPath><g
           class="st0"
           id="g17"
           clip-path="url(#SVGID_2_)"><g
             id="g19"><polygon
               class="st1"
               points="959.4,500 959.4,500 639.9,500 360.3,779.7 520,939.5 959.4,500 "
               id="polygon21"
               style="fill:#39cefd" /></g></g></g><g
         id="g23"><defs
           id="defs25"><path
             id="SVGID_3_"
             d="m 959.4,500 -279.6,279.7 279.6,279.7 0,0 -319.5,0 -119.9,-119.9 0,0 L 360.2,779.7 639.9,500 l 319.5,0 0,0 0,0 z M 639.9,20.7 120.6,540 l 159.8,159.8 679,-679.1 -319.5,0 z"
             inkscape:connector-curvature="0" /></defs><clipPath
           id="SVGID_4_"><use
             xlink:href="#SVGID_3_"
             style="overflow:visible"
             id="use29"
             x="0"
             y="0"
             width="100%"
             height="100%" /></clipPath><polygon
           class="st2"
           points="120.6,540 639.9,20.7 959.4,20.7 280.4,699.8 "
           id="polygon31"
           clip-path="url(#SVGID_4_)"
           style="fill:#39cefd" /></g><g
         id="g33"><defs
           id="defs35"><path
             id="SVGID_5_"
             d="m 959.4,500 -279.6,279.7 279.6,279.7 0,0 -319.5,0 -119.9,-119.9 0,0 L 360.2,779.7 639.9,500 l 319.5,0 0,0 0,0 z M 639.9,20.7 120.6,540 l 159.8,159.8 679,-679.1 -319.5,0 z"
             inkscape:connector-curvature="0" /></defs><clipPath
           id="SVGID_6_"><use
             xlink:href="#SVGID_5_"
             style="overflow:visible"
             id="use39"
             x="0"
             y="0"
             width="100%"
             height="100%" /></clipPath><polygon
           class="st3"
           points="520,939.5 639.9,1059.3 959.4,1059.3 959.4,1059.3 679.8,779.7 "
           id="polygon41"
           clip-path="url(#SVGID_6_)"
           style="fill:#03569b" /></g><g
         id="g43"><defs
           id="defs45"><path
             id="SVGID_7_"
             d="m 959.4,500 -279.6,279.7 279.6,279.7 0,0 -319.5,0 -119.9,-119.9 0,0 L 360.2,779.7 639.9,500 l 319.5,0 0,0 0,0 z M 639.9,20.7 120.6,540 l 159.8,159.8 679,-679.1 -319.5,0 z"
             inkscape:connector-curvature="0" /></defs><clipPath
           id="SVGID_8_"><use
             xlink:href="#SVGID_7_"
             style="overflow:visible"
             id="use49"
             x="0"
             y="0"
             width="100%"
             height="100%" /></clipPath><linearGradient
           id="SVGID_9_"
           gradientUnits="userSpaceOnUse"
           x1="9514.54"
           y1="-6371.355"
           x2="9990.5996"
           y2="-5895.2949"
           gradientTransform="matrix(0.25,0,0,-0.25,-1812,-622.5)"><stop
             offset="0"
             style="stop-color:#1A237E;stop-opacity:0.4"
             id="stop52" /><stop
             offset="1"
             style="stop-color:#1A237E;stop-opacity:0"
             id="stop54" /></linearGradient><polygon
           class="st4"
           points="757,857.4 679.8,779.7 520,939.5 "
           id="polygon56"
           clip-path="url(#SVGID_8_)"
           style="fill:url(#SVGID_9_)" /></g><g
         id="g58"><defs
           id="defs60"><path
             id="SVGID_10_"
             d="m 959.4,500 -279.6,279.7 279.6,279.7 0,0 -319.5,0 -119.9,-119.9 0,0 L 360.2,779.7 639.9,500 l 319.5,0 0,0 0,0 z M 639.9,20.7 120.6,540 l 159.8,159.8 679,-679.1 -319.5,0 z"
             inkscape:connector-curvature="0" /></defs><clipPath
           id="SVGID_11_"><use
             xlink:href="#SVGID_10_"
             style="overflow:visible"
             id="use64"
             x="0"
             y="0"
             width="100%"
             height="100%" /></clipPath><g
           class="st5"
           id="g66"
           clip-path="url(#SVGID_11_)"><rect
             x="407.10001"
             y="666.70001"
             transform="matrix(0.7071,-0.7071,0.7071,0.7071,-399.0023,596.0814)"
             class="st6"
             width="226"
             height="226"
             id="rect68"
             style="fill:#16b9fd" /></g></g></g><radialGradient
       id="SVGID_12_"
       cx="7824.6587"
       cy="-2855.979"
       r="5082.8887"
       gradientTransform="matrix(0.25,0,0,-0.25,-1812,-622.5)"
       gradientUnits="userSpaceOnUse"><stop
         offset="0"
         style="stop-color:#FFFFFF;stop-opacity:0.1"
         id="stop71" /><stop
         offset="1"
         style="stop-color:#FFFFFF;stop-opacity:0"
         id="stop73" /></radialGradient><path
       class="st7"
       d="m 959.4,500 -279.6,279.7 279.6,279.7 0,0 -319.5,0 -119.9,-119.9 0,0 L 360.2,779.7 639.9,500 l 319.5,0 0,0 0,0 z M 639.9,20.7 120.6,540 l 159.8,159.8 679,-679.1 -319.5,0 z"
       id="path75"
       inkscape:connector-curvature="0"
       style="fill:url(#SVGID_12_)" /></g><flowRoot
     xml:space="preserve"
     id="flowRoot4209"
     style="font-style:normal;font-weight:normal;font-size:180px;line-height:125%;font-family:sans-serif;letter-spacing:0px;word-spacing:0px;fill:#07599d;fill-opacity:1;stroke:none;stroke-width:1px;stroke-linecap:butt;stroke-linejoin:miter;stroke-opacity:1"
     transform="matrix(3.588201,-0.01235813,-0.02863832,3.941821,-912.99579,-1662.578)"><flowRegion
       id="flowRegion4211"><rect
         id="rect4213"
         width="588.05084"
         height="585.7627"
         x="407.28815"
         y="140.76271"
         style="font-size:180px;fill:#07599d;fill-opacity:1" /></flowRegion><flowPara
       id="flowPara4215"
       style="font-style:normal;font-variant:normal;font-weight:bold;font-stretch:normal;font-size:180px;line-height:313.00003529%;font-family:sans-serif;-inkscape-font-specification:'sans-serif Bold';fill:#07599d;fill-opacity:1">D</flowPara></flowRoot></svg>